<svg shape-rendering="geometricPrecision" xmlns="http://www.w3.org/2000/svg" xml:space="preserve" viewBox="0 0 24 24">
    <path d="M20.3 339.6 190 246.7 74.9 339.6l139.6-80.2-2.2 16.1 23.3-12.9 52.5 49.7 28-84.1 35.5-5-15.6-48.6 33-28.7-43.8-18.5 12-51-40.3 18.5-19-45.6-34.1 34-56.1-29.4-10.1 55.2-51.8 11.2 30.7 18.6-30.9 15.5 26.2 2.2L44 240.5l108.5-57.7L36 271.4l123.9-64.5-132.2 99.5 145.8-77.8z" style="fill:#f79e1e" transform="scale(.06)"/>
    <path d="M330.8 175.4c-1.9 46.6-41.3 82.8-87.9 80.9S160.1 215 162 168.4s41.3-82.8 87.9-80.9 82.8 41.2 80.9 87.9" style="fill:#e46025" transform="scale(.06)"/>
    <path d="M256.7 244.7c-46.6-1.9-82.8-41.3-80.9-87.9.9-21.6 9.8-40.9 23.8-55.2-21.7 14.5-36.4 38.8-37.6 66.8-1.9 46.6 34.3 86 80.9 87.9 25 1 48-8.9 64.2-25.7-14.4 9.6-31.8 14.9-50.4 14.1" style="fill:#b65b27" transform="scale(.06)"/>
    <path d="M19.854 10.368q.002-.27-.024-.54a2.34 2.34 0 0 0-1.056-.414 3 3 0 0 0-.228-.024 7 7 0 0 0-.222-.984c.054.006.102.006.156.012q.533.043 1.056.114a6 6 0 0 0-.156-.378c-.39-.06-.786-.102-1.188-.138h-.006a6 6 0 0 0-.468-.942c.258-.054.492-.156.678-.336a3 3 0 0 0-.3-.276c-.162.15-.372.228-.618.264-.036-.054-.078-.102-.114-.15a5.5 5.5 0 0 0-1.182-1.14 5.6 5.6 0 0 0-1.194-.198h-.072a5 5 0 0 1 2.01 1.494c-.528-.048-1.134-.228-1.734-.402q-.271-.08-.516-.15c-1.026-.282-1.812-.33-2.4-.276a5.2 5.2 0 0 0-1.182.93c.636-.27 1.926-.72 3.492-.288.162.042.336.096.516.15.69.204 1.464.432 2.136.438q.277.412.474.87-.198-.01-.396-.012c-3.252-.054-6.048.918-7.596 2.472.012.312.042.612.102.906.438-.63 1.08-1.194 1.914-1.668 1.578-.882 3.666-1.356 5.886-1.308.078 0 .15.006.228.006q.171.485.252.996c-1.428.06-2.358.954-3.426 1.908-.954.858-2.124 1.71-3.828 2.22.156.198.336.384.522.552 1.614-.642 2.676-1.656 3.576-2.466 1.026-.918 1.908-1.794 3.192-1.842.03.354.03.72 0 1.086-.174 1.986-1.32 3.672-2.892 4.5.396-.036.792-.12 1.158-.252.126-.102.252-.21.366-.33 1.026-1.008 1.668-2.394 1.794-3.882q.045-.56 0-1.11.099.007.198.024c.468.072.816.3 1.092.564"/>
</svg>
